<?xml version="1.0" encoding="utf-8"?>
<!-- Generator: Adobe Illustrator 23.0.1, SVG Export Plug-In . SVG Version: 6.00 Build 0)  -->
<svg version="1.1" xmlns="http://www.w3.org/2000/svg" xmlns:xlink="http://www.w3.org/1999/xlink" x="0px" y="0px"
	 viewBox="0 0 180 180" style="enable-background:new 0 0 180 180;" xml:space="preserve">
	 <g>
	<path fill="#121212" d="M171.8,176.5H8.2c-2.6,0-4.7-2.1-4.7-4.7V8.2c0-2.6,2.1-4.7,4.7-4.7h163.7c2.6,0,4.7,2.1,4.7,4.7v163.7
		C176.5,174.4,174.4,176.5,171.8,176.5z"/>
	<g>
		<polygon fill="#ffffff" points="49.8,51.7 21,90 49.8,128.3 72.8,128.3 44,90 72.8,51.7 		"/>
		<polygon fill="#E5004C" points="130.3,51.7 159,90 130.3,128.3 107.3,128.3 136,90 107.3,51.7 		"/>
		<polygon fill="#E5004C" points="107.3,51.7 84.3,82.3 107.3,82.3 130.3,51.7 		"/>
		<polygon fill="#ffffff" points="49.8,128.3 72.8,97.7 95.8,97.7 72.8,128.3 		"/>
	</g>
</g>
</svg>
