<svg width="32" height="32" viewBox="0 0 32 32" fill="none" xmlns="http://www.w3.org/2000/svg">
<path d="M30.075 16C30.078 16.4101 29.9532 16.811 29.718 17.147C29.4828 17.483 29.1489 17.7374 28.7625 17.875L20.775 20.775L17.875 28.7625C17.7329 29.1453 17.4771 29.4754 17.1419 29.7085C16.8068 29.9416 16.4083 30.0665 16 30.0665C15.5917 30.0665 15.1932 29.9416 14.8581 29.7085C14.5229 29.4754 14.2671 29.1453 14.125 28.7625L11.225 20.775L3.2375 17.875C2.85475 17.7329 2.52464 17.4771 2.29153 17.1419C2.05842 16.8068 1.93347 16.4083 1.93347 16C1.93347 15.5917 2.05842 15.1932 2.29153 14.8581C2.52464 14.5229 2.85475 14.2671 3.2375 14.125L11.225 11.225L14.125 3.2375C14.2671 2.85475 14.5229 2.52464 14.8581 2.29153C15.1932 2.05842 15.5917 1.93347 16 1.93347C16.4083 1.93347 16.8068 2.05842 17.1419 2.29153C17.4771 2.52464 17.7329 2.85475 17.875 3.2375L20.775 11.225L28.7625 14.125C29.1489 14.2626 29.4828 14.517 29.718 14.853C29.9532 15.189 30.078 15.5899 30.075 16Z" fill="#FFFDFD"/>
</svg>
